<svg width="22" height="22" viewBox="0 0 22 22" fill="none" xmlns="http://www.w3.org/2000/svg">
<path fill-rule="evenodd" clip-rule="evenodd" d="M14.3779 3.51216C15.1799 2.58267 15.7204 1.28808 15.5725 0C14.4168 0.044 13.0186 0.738261 12.1899 1.66665C11.4458 2.49054 10.7962 3.80699 10.9709 5.06978C12.26 5.16546 13.5759 4.44274 14.3779 3.51216ZM17.2688 11.6875C17.301 15.0172 20.3165 16.1248 20.3499 16.1391C20.3254 16.2172 19.8683 17.7173 18.7615 19.2683C17.8038 20.6081 16.8105 21.9424 15.2455 21.971C13.7083 21.9985 13.2133 21.0977 11.4547 21.0977C9.69725 21.0977 9.14777 21.9423 7.69286 21.9984C6.18233 22.0523 5.03109 20.5489 4.06671 19.2135C2.09346 16.4822 0.586275 11.4951 2.61069 8.12915C3.61622 6.45827 5.41261 5.39857 7.36361 5.37217C8.84633 5.34467 10.2467 6.32822 11.1533 6.32822C12.0598 6.32822 13.7617 5.14573 15.5503 5.31953C16.2988 5.34923 18.4011 5.60874 19.7504 7.50181C19.6413 7.56671 17.2421 8.90454 17.2688 11.6875Z" fill="white"/>
</svg>
