<svg width="28" height="14" viewBox="0 0 28 14" fill="none" xmlns="http://www.w3.org/2000/svg">
<path d="M25.2001 4.2V1.862C25.1964 1.3693 24.9991 0.897818 24.6507 0.549416C24.3023 0.201014 23.8308 0.00366336 23.3381 0H19.6001V7.658L21.0001 8.4H19.6001V14H23.3381C23.8308 13.9963 24.3023 13.799 24.6507 13.4506C24.9991 13.1022 25.1964 12.6307 25.2001 12.138V9.8H28.0001V4.2H25.2001Z" fill="white" fill-opacity="0.3"/>
<path d="M13.3 8.4V11.2L2.8 5.6H10.5V2.8L19.6 7.658V7.28373e-10H1.876C1.38087 -1.37868e-05 0.905812 0.195712 0.554393 0.544508C0.202974 0.893305 0.003695 1.36688 7.28372e-10 1.862V12.124C-1.37868e-05 12.6191 0.195713 13.0942 0.544509 13.4456C0.893305 13.797 1.36688 13.9963 1.862 14H19.6V8.4H13.3Z" fill="white"/>
</svg>
