<svg width="23" height="24" viewBox="0 0 23 24" fill="none" xmlns="http://www.w3.org/2000/svg">
<path d="M17.2986 15.4028C16.652 16.5526 15.6168 16.9825 14.4033 17.4997C13.1898 18.0169 11.8394 18.1184 10.5622 17.7884C9.28501 17.4584 8.15273 16.7155 7.34157 15.6753C6.53041 14.6351 6.08588 13.3558 6.07717 12.0368C6.06845 10.7177 6.49604 9.4327 7.29339 8.38183C8.09073 7.33097 9.2131 6.57316 10.4858 6.22636C11.7585 5.87955 13.2347 5.89701 14.455 6.3981C15.6752 6.89919 16.5877 7.34596 17.2986 8.38183L22.2749 5.45023C20.9431 3.16467 19.1015 1.91832 16.6558 0.910171C14.2102 -0.0979735 11.5009 -0.274053 8.94539 0.409056C6.38984 1.09216 4.12978 2.59656 2.51335 4.69051C0.896913 6.78446 0.0137877 9.3518 9.30575e-06 11.997C-0.00261081 14.0946 0.548102 16.1558 1.59657 17.9725C2.65828 19.8075 4.18441 21.3306 6.02151 22.3887C7.85861 23.4468 9.9419 24.0025 12.0619 24C14.1819 23.9975 16.2639 23.4369 18.0985 22.3745C19.9331 21.3121 21.2175 20.0839 22.2749 18.2464L17.2986 15.4028Z" fill="#3A86D7"/>
</svg>
