<svg width="24" height="24" viewBox="0 0 24 24" fill="none" xmlns="http://www.w3.org/2000/svg">
<path d="M16.5947 14.7761C15.9744 15.8791 14.9814 16.2915 13.8172 16.7876C12.6531 17.2837 11.3576 17.3811 10.1324 17.0646C8.9072 16.748 7.82098 16.0354 7.04283 15.0375C6.26468 14.0395 5.83824 12.8124 5.82988 11.547C5.82152 10.2816 6.23171 9.04887 6.99661 8.04077C7.76151 7.03266 8.83821 6.30569 10.0591 5.973C11.2801 5.64031 12.6962 5.65705 13.8668 6.13775C15.0374 6.61845 15.9127 7.04705 16.5947 8.04077L21.3685 5.22846C20.0909 3.0359 18.3242 1.84026 15.9781 0.873136C13.632 -0.0939868 11.033 -0.262901 8.5814 0.392411C6.12983 1.04772 3.96173 2.49091 2.41107 4.49965C0.860416 6.5084 0.0132266 8.97127 8.92709e-06 11.5089C-0.00250458 13.5211 0.525799 15.4984 1.53161 17.2412C2.55011 19.0015 4.01415 20.4627 5.77649 21.4777C7.53883 22.4927 9.53735 23.0258 11.5711 23.0234C13.6048 23.021 15.6021 22.4832 17.362 21.464C19.122 20.4449 20.3541 19.2667 21.3685 17.504L16.5947 14.7761Z" fill="#3A86D7"/>
<path d="M19.1639 10.8656H17.8746V9.58324H16.5867V10.8656H15.2974V12.1508H16.5867V13.4317H17.8746V12.1508H19.1639V10.8656Z" fill="#3A86D7"/>
<path d="M23.9998 10.8656H22.7105V9.58324H21.4212V10.8656H20.1318V12.1508H21.4212V13.4317H22.7105V12.1508H23.9998V10.8656Z" fill="#3A86D7"/>
</svg>
