<svg width="28" height="22" viewBox="0 0 28 22" fill="none" xmlns="http://www.w3.org/2000/svg">
<path d="M7.28368 17.2857H16.1474C18.7305 17.2857 20.5803 15.1741 20.5803 12.5714H22.3863C25.8271 12.5714 27.9684 9.75268 27.9684 6.28571C27.9684 2.81875 25.8271 0 22.3863 0H3.77466C3.12647 0 2.60498 0.525446 2.60498 1.17857V12.5714C2.60498 15.1741 4.70065 17.2857 7.28368 17.2857ZM22.3863 3.14286C24.1067 3.14286 25.1773 4.55223 25.1773 6.28571C25.1773 8.0192 24.1067 9.42857 22.3863 9.42857H20.5803V3.14286H22.3863ZM25.2041 22H2.52062C0.20077 22 -0.667993 18.8806 0.550417 18.8806L26.9537 18.8571C28.1721 18.8571 27.5288 22 25.2041 22Z" fill="#F30045"/>
</svg>
