<svg width="24" height="24" viewBox="0 0 24 24" fill="none" xmlns="http://www.w3.org/2000/svg">
<path d="M11.9014 0.0102856C5.81572 0.0102856 6.20058 2.64172 6.20058 2.64172V5.376H11.988V6.23315H3.89572C3.89572 6.23315 0 5.75315 0 11.9289C0 18.1046 3.43972 17.8534 3.43972 17.8534H5.42572V14.9726C5.42572 14.9726 5.31429 11.5329 8.76858 11.5329H14.5646C14.5646 11.5329 17.7977 11.5843 17.7977 8.40258V3.18172C17.7977 3.18172 18.288 0 11.9332 0L11.9014 0.0102856ZM8.70258 1.842C8.90833 1.83681 9.11099 1.89275 9.28495 2.00275C9.4589 2.11274 9.59633 2.27185 9.67986 2.45996C9.76338 2.64806 9.78925 2.85671 9.75418 3.05952C9.71912 3.26232 9.6247 3.45018 9.48287 3.59932C9.34104 3.74846 9.15817 3.8522 8.95738 3.8974C8.75659 3.94261 8.54691 3.92726 8.35485 3.85329C8.16278 3.77932 7.99697 3.65006 7.87837 3.48185C7.75978 3.31364 7.69373 3.11404 7.68858 2.90829V2.89115C7.68858 2.7545 7.71549 2.61918 7.76779 2.49294C7.82008 2.36669 7.89673 2.25198 7.99335 2.15535C8.08998 2.05872 8.20469 1.98208 8.33094 1.92978C8.45719 1.87749 8.5925 1.85057 8.72915 1.85057L8.70258 1.842Z" fill="url(#paint0_linear_56_542)"/>
<path d="M12.0728 23.8474C18.1585 23.8474 17.7737 21.2074 17.7737 21.2074V18.4817H11.9871V17.6246H20.1042C20.1042 17.6246 23.9999 18.06 23.9999 11.9203C23.9999 5.78058 20.5602 5.99572 20.5602 5.99572H18.5485V8.83886C18.5485 8.83886 18.6599 12.2786 15.2057 12.2786H9.40708C9.40708 12.2786 6.17136 12.2297 6.17136 15.4114V20.6674C6.17136 20.6674 5.68107 23.8492 12.0359 23.8492H12.0702L12.0728 23.8474ZM15.2717 22.0072C15.0659 22.0124 14.8632 21.9564 14.6893 21.8464C14.5153 21.7364 14.3779 21.5773 14.2944 21.3892C14.2108 21.2011 14.185 20.9925 14.22 20.7896C14.2551 20.5868 14.3495 20.399 14.4914 20.2498C14.6332 20.1007 14.8161 19.997 15.0168 19.9518C15.2176 19.9066 15.4273 19.9219 15.6194 19.9959C15.8114 20.0698 15.9773 20.1991 16.0959 20.3673C16.2145 20.5355 16.2805 20.7351 16.2857 20.9409V20.9666C16.2857 21.2426 16.176 21.5072 15.9809 21.7024C15.7857 21.8975 15.5211 22.0072 15.2451 22.0072H15.2717Z" fill="url(#paint1_linear_56_542)"/>
<defs>
<linearGradient id="paint0_linear_56_542" x1="2.37185" y1="2.3442" x2="13.7604" y2="13.707" gradientUnits="userSpaceOnUse">
<stop stop-color="#387EB8"/>
<stop offset="1" stop-color="#366994"/>
</linearGradient>
<linearGradient id="paint1_linear_56_542" x1="9.10922" y1="9.74621" x2="22.1208" y2="21.1056" gradientUnits="userSpaceOnUse">
<stop stop-color="#FFE052"/>
<stop offset="1" stop-color="#FFC331"/>
</linearGradient>
</defs>
</svg>
